<?xml version="1.0" standalone="no"?>
<!DOCTYPE svg PUBLIC "-//W3C//DTD SVG 20010904//EN"
 "http://www.w3.org/TR/2001/REC-SVG-20010904/DTD/svg10.dtd">
<svg version="1.0" xmlns="http://www.w3.org/2000/svg"
 width="260.000000pt" height="260.000000pt" viewBox="0 0 260.000000 260.000000"
 preserveAspectRatio="xMidYMid meet">
<metadata>
Created by potrace 1.14, written by Peter Selinger 2001-2017
</metadata>
<g transform="translate(0.000000,260.000000) scale(0.100000,-0.100000)"
fill="#000000" stroke="none">
<path d="M1150 2593 c-281 -43 -520 -150 -702 -312 -31 -28 -61 -51 -67 -51
-6 0 -11 -5 -11 -11 0 -6 -23 -36 -50 -67 -115 -129 -220 -320 -266 -483 -40
-139 -48 -203 -49 -359 0 -163 8 -228 49 -385 3 -11 8 -24 43 -115 46 -120
134 -263 222 -362 28 -31 51 -61 51 -67 0 -6 5 -11 11 -11 6 0 36 -22 67 -50
190 -166 437 -279 677 -308 109 -13 334 -6 425 13 314 65 571 222 769 470 139
173 228 378 266 610 13 79 13 327 1 390 -4 17 -11 53 -16 80 -30 146 -113 340
-199 461 -211 298 -509 487 -871 551 -34 6 -319 11 -350 6z"/>
</g>
</svg>
